
        <svg xmlns="http://www.w3.org/2000/svg" xmlns:xlink="http://www.w3.org/1999/xlink" version="1.1" width="3187.5" 
        height="1052.518999176095" viewBox="0 0 3187.5 1052.518999176095">
			<rect fill="#0d5126" width="3187.5" height="1052.518999176095"/>
			<g transform="scale(9.375) translate(10, 10)">
				<defs id="SvgjsDefs4314"></defs><g id="SvgjsG4315" featureKey="4K7G0D-0" transform="matrix(0.17752320457122253,0,0,0.17752320457122253,-3.673548422206177,-8.93727796055483)" fill="#68f018"><metadata xmlns="http://www.w3.org/2000/svg">Created by potrace 1.14, written by Peter Selinger 2001-2017</metadata><g xmlns="http://www.w3.org/2000/svg" transform="translate(0.000000,600.000000) scale(0.100000,-0.100000)" fill="#68f018" stroke="none"><path d="M3160 5494 c-413 -40 -538 -58 -1080 -155 -155 -28 -278 -43 -395 -50 -93 -6 -180 -14 -193 -20 -60 -24 -71 -138 -43 -444 30 -320 43 -400 117 -725 123 -538 223 -920 259 -995 31 -64 95 -145 114 -145 4 0 7 69 7 153 l-1 152 -107 325 c-219 667 -274 863 -318 1130 -37 217 -49 440 -28 480 l14 25 149 -3 c114 -3 223 4 450 27 611 62 636 63 949 62 323 -2 380 -8 585 -61 132 -35 148 -36 177 -12 36 29 51 64 53 123 3 86 -10 96 -144 114 -109 15 -478 27 -565 19z"></path><path d="M4148 5382 c-76 -39 -361 -236 -506 -349 -170 -133 -958 -880 -1028 -976 -40 -54 -84 -150 -84 -182 0 -17 16 -20 25 -5 3 5 38 25 78 43 110 52 170 105 368 327 266 298 500 549 635 680 252 245 578 477 637 454 7 -2 44 -64 83 -137 43 -78 131 -214 218 -334 211 -293 458 -646 481 -690 11 -21 66 -122 122 -224 114 -206 139 -266 189 -449 19 -69 43 -133 53 -143 41 -42 138 -29 199 26 31 29 28 56 -19 165 -151 353 -337 629 -790 1172 -303 363 -324 390 -409 525 -34 55 -72 108 -84 117 -34 28 -87 22 -168 -20z"></path><path d="M1182 4845 c-69 -78 -232 -321 -287 -428 -134 -257 -244 -526 -449 -1092 -42 -115 -115 -290 -163 -387 -98 -202 -98 -206 -19 -274 45 -39 299 -167 522 -262 239 -102 1292 -421 1444 -437 100 -11 240 21 184 41 -10 4 -39 23 -64 42 -100 76 -163 96 -540 176 -636 134 -854 189 -1060 264 -304 111 -479 200 -495 251 -4 14 17 56 71 142 45 73 114 207 169 328 270 601 329 722 482 975 140 233 165 266 303 410 101 106 110 118 110 153 -1 51 -16 76 -70 112 -64 43 -90 41 -138 -14z"></path><path d="M3692 3829 c-90 -15 -90 -20 0 -78 132 -87 164 -97 535 -176 668 -141 871 -192 1108 -281 262 -98 455 -200 455 -242 0 -10 -32 -69 -72 -132 -39 -63 -107 -194 -151 -290 -323 -714 -342 -753 -510 -1030 -131 -217 -174 -274 -324 -431 -87 -90 -94 -105 -72 -167 13 -39 93 -92 137 -92 27 0 39 9 77 58 95 119 244 352 302 472 149 305 205 442 389 950 80 218 139 364 195 473 43 87 79 170 79 184 0 51 -82 114 -262 201 -353 173 -466 215 -1008 377 -657 197 -766 222 -878 204z"></path><path d="M2881 3290 c-65 -23 -101 -46 -101 -63 0 -7 -22 -29 -49 -50 -64 -47 -98 -106 -118 -203 -14 -70 -14 -80 1 -111 9 -18 16 -44 16 -57 0 -56 32 -126 81 -180 59 -65 105 -95 151 -101 18 -2 60 -13 93 -25 70 -26 133 -22 217 11 75 29 218 175 241 245 27 81 32 159 13 188 -9 14 -16 38 -16 54 0 16 -7 49 -16 75 -28 81 -148 197 -204 197 -15 0 -47 9 -71 20 -58 26 -165 26 -238 0z"></path><path d="M4095 2688 l1 -153 106 -320 c102 -308 214 -669 257 -825 74 -273 124 -709 91 -796 l-11 -27 -147 6 c-116 5 -196 1 -382 -18 -711 -72 -676 -70 -1020 -67 -345 2 -354 3 -582 59 -140 35 -147 36 -172 20 -38 -25 -57 -60 -62 -115 -6 -62 8 -100 42 -112 42 -16 329 -41 474 -41 284 0 564 34 1227 152 211 37 325 52 449 58 192 11 209 18 232 92 22 72 2 407 -43 719 -18 123 -125 591 -230 1010 -79 313 -112 400 -179 473 -19 20 -39 37 -43 37 -4 0 -8 -69 -8 -152z"></path><path d="M466 2402 c-68 -39 -74 -57 -46 -134 41 -114 167 -366 234 -467 176 -269 310 -443 710 -920 101 -121 212 -266 256 -335 43 -67 87 -131 98 -143 33 -35 92 -31 177 13 110 56 477 317 610 434 194 171 844 793 908 869 46 56 86 134 94 187 6 37 5 38 -13 23 -10 -8 -59 -34 -107 -58 -107 -52 -149 -91 -446 -424 -117 -130 -289 -319 -384 -419 -316 -334 -728 -646 -793 -601 -6 5 -42 66 -81 138 -40 74 -132 216 -214 330 -183 253 -392 551 -446 635 -22 36 -92 160 -156 275 -113 208 -167 341 -207 513 -17 74 -44 103 -100 108 -36 3 -55 -2 -94 -24z"></path></g></g><g id="SvgjsG4316" featureKey="wPuqcM-0" transform="matrix(2.045826469206661,0,0,2.045826469206661,116.03109726432051,1.0163704982495538)" fill="#68f018"><path d="M3.26 5.84 l0 6.24 l0.12 0 l6.86 -6.24 l1.82 0 l-7.16 6.48 l7.56 7.68 l-1.9 0 l-7.18 -7.32 l-0.12 0 l0 7.32 l-1.32 0 l0 -14.16 l1.32 0 z M18.22 10.52 q1.8 0 2.65 0.97 t0.87 3.05 l0 5.46 l-1.2 0 l0 -5.4 q0 -1.54 -0.57 -2.27 t-1.75 -0.73 q-1.46 0 -2.32 1.01 t-0.88 2.81 l0 4.58 l-1.2 0 l0 -6.74 q-0.02 -0.58 -0.1 -2.5 l1.2 0 q0.04 1.58 0.08 1.62 l0.06 0 q0.4 -0.84 1.27 -1.35 t1.89 -0.51 z M25.620000000000005 15.379999999999999 q0 1.66 1.04 2.72 t2.62 1.06 q1.64 0 2.65 -1.08 t1.01 -2.7 q0 -1.6 -1 -2.68 t-2.68 -1.1 q-1.62 0 -2.62 1.08 t-1.02 2.7 z M29.280000000000005 10.52 q2.12 0 3.48 1.38 t1.38 3.48 q0 2.14 -1.39 3.49 t-3.47 1.37 q-2.18 -0.02 -3.51 -1.4 t-1.35 -3.46 q0 -2.14 1.37 -3.49 t3.49 -1.37 z M36.84 10.76 l2.24 7.74 l0.04 0 l2.58 -7.74 l1.14 0 l2.74 7.74 l0.04 0 l2.18 -7.74 l1.2 0 l-2.72 9.24 l-1.24 0 l-2.76 -7.56 l-0.04 0 l-2.58 7.56 l-1.24 0 l-2.9 -9.24 l1.32 0 z M51.1 4.880000000000001 l1.2 0 l0 15.12 l-1.2 0 l0 -15.12 z M62.94 14.6 q0 -1.26 -0.94 -2.13 t-2.28 -0.87 q-1.3 0 -2.24 0.87 t-1.1 2.13 l6.56 0 z M59.800000000000004 10.52 q1.92 0 3.12 1.24 t1.22 3.2 l0 0.72 l-7.76 0 q0.08 1.56 1.03 2.51 t2.47 0.97 q0.94 0 1.79 -0.45 t1.31 -1.19 l0.88 0.74 q-1.3 1.98 -4 1.98 q-2.12 -0.02 -3.39 -1.38 t-1.29 -3.5 q0 -2.08 1.31 -3.45 t3.31 -1.39 z M67.5 15.379999999999999 q0 1.66 1.04 2.72 t2.62 1.06 q1.56 0 2.69 -1.07 t1.17 -2.71 q0 -1.56 -1.11 -2.66 t-2.77 -1.12 q-1.56 0 -2.59 1.06 t-1.05 2.72 z M74.9 4.880000000000001 l1.2 0 l0 15.12 l-1.2 0 l0 -1.62 l-0.04 0 q-0.5 0.88 -1.53 1.37 t-2.17 0.49 q-2.06 0 -3.44 -1.35 t-1.42 -3.51 q0 -2.06 1.35 -3.44 t3.51 -1.42 q1.18 0 2.18 0.49 t1.52 1.37 l0.04 0 l0 -7.5 z M79.84 15.26 q0 1.52 1.07 2.57 t2.59 1.09 q1.5 0 2.56 -1.06 t1.1 -2.6 q0 -1.52 -1.08 -2.58 t-2.6 -1.08 q-1.52 0 -2.58 1.09 t-1.06 2.57 z M83.58 10.52 q2.36 0.02 3.5 1.8 l0.04 0 l0 -1.56 l1.2 0 l0 8.6 q0 2.7 -1.3 4.07 t-3.64 1.37 q-1.4 0 -2.62 -0.51 t-1.94 -1.43 l0.94 -0.88 q1.24 1.74 3.64 1.74 q3.72 0 3.72 -4.14 l0 -1.38 l-0.04 0 q-1.12 1.76 -3.5 1.8 q-2 0 -3.44 -1.37 t-1.5 -3.37 q0 -1.96 1.47 -3.34 t3.47 -1.4 z M98.5 14.6 q0 -1.26 -0.94 -2.13 t-2.28 -0.87 q-1.3 0 -2.24 0.87 t-1.1 2.13 l6.56 0 z M95.36 10.52 q1.92 0 3.12 1.24 t1.22 3.2 l0 0.72 l-7.76 0 q0.08 1.56 1.03 2.51 t2.47 0.97 q0.94 0 1.79 -0.45 t1.31 -1.19 l0.88 0.74 q-1.3 1.98 -4 1.98 q-2.12 -0.02 -3.39 -1.38 t-1.29 -3.5 q0 -2.08 1.31 -3.45 t3.31 -1.39 z"></path></g><g id="SvgjsG4317" featureKey="Li3fkV-0" transform="matrix(1.32639190060207,0,0,1.32639190060207,117.42679900446228,54.73137235940174)" fill="#fcfcfc"><path d="M10.6 5.84 l0 1.2 l-7.34 0 l0 5.04 l6.88 0 l0 1.2 l-6.88 0 l0 5.52 l7.66 0 l0 1.2 l-8.98 0 l0 -14.16 l8.66 0 z M31.392000000000003 18.8 q3.04 0 4.8 -1.54 t1.78 -4.24 q0 -2.88 -1.75 -4.42 t-4.89 -1.56 l-2.76 0 l0 11.76 l2.82 0 z M31.672 5.84 q3.56 0 5.57 1.92 t2.05 5.26 q0 1.96 -0.89 3.55 t-2.56 2.51 t-4.09 0.92 l-4.5 0 l0 -14.16 l4.42 0 z M56.944 5.84 l0 8.5 q0 2.3 0.95 3.54 t2.89 1.28 q3.8 0 3.84 -5.02 l0 -8.3 l1.32 0 l0 8.64 q0 2.78 -1.3 4.32 t-3.86 1.56 q-2.52 0 -3.83 -1.53 t-1.33 -4.25 l0 -8.74 l1.32 0 z M89.596 5.48 q3.14 0 4.88 2.22 l-1.08 0.9 q-0.6 -0.9 -1.6 -1.41 t-2.2 -0.51 q-2.64 0 -4.3 1.74 t-1.7 4.5 q0 2.74 1.67 4.47 t4.33 1.77 q1.14 0 2.32 -0.57 t1.86 -1.63 l1.08 0.82 q-1.88 2.58 -5.26 2.58 q-3.28 -0.02 -5.27 -2.12 t-2.05 -5.32 q0 -3.26 2.05 -5.33 t5.27 -2.11 z M112.568 15.04 l6.5 0 l-3.2 -7.76 z M116.608 5.84 l5.96 14.16 l-1.48 0 l-1.54 -3.76 l-7.5 0 l-1.6 3.76 l-1.38 0 l6.18 -14.16 l1.36 0 z"></path></g>
			</g>
		</svg>
	